<?xml version="1.0" encoding="utf-8"?>
<!-- Generator: Adobe Illustrator 19.1.0, SVG Export Plug-In . SVG Version: 6.00 Build 0)  -->
<!DOCTYPE svg PUBLIC "-//W3C//DTD SVG 1.1//EN" "http://www.w3.org/Graphics/SVG/1.1/DTD/svg11.dtd">
<svg version="1.1" id="Calque_1" xmlns="http://www.w3.org/2000/svg" xmlns:xlink="http://www.w3.org/1999/xlink" x="0px" y="0px"
	 viewBox="0 0 1008 386.5" style="enable-background:new 0 0 1008 386.5;" xml:space="preserve">
<style type="text/css">
	.st0{fill:#FFFFFF;}
</style>
<g>
	<rect x="737.4" y="63.2" class="st0" width="29.7" height="200.6"/>
	<rect x="94.8" y="293.6" class="st0" width="818.3" height="29.7"/>
	<g>
		<path class="st0" d="M683.2,63.2h-0.1v84L683,147c-10.1-9.8-21.4-15.8-40-15.8c-31.2,0-62.6,30.4-62.6,68.4
			c0,18.8,7,35.9,18.3,48.3c11.3,12.4,29.9,20.1,47.1,20.1c15.2,0,26.9-5.9,37.2-15.8l0.1,2.4v9.2h0.1h29.7V63.2H683.2z
			 M674.9,228.6c-6.8,7.4-16.2,12.7-26.6,12.7c-22.2,0-37.7-18.7-37.7-41.7c0-11.4,4.2-21.6,11-29c6.8-7.4,16.2-11.9,26.6-11.9
			c10.4,0,19.8,4.6,26.6,11.9c6.8,7.4,11,17.6,11,29C685.9,211,681.7,221.2,674.9,228.6z"/>
	</g>
	<polygon class="st0" points="124.5,104.2 240,263.8 244.5,263.8 268.5,263.8 274.2,263.8 274.2,63.2 244.5,63.2 244.5,219.7 
		131.2,63.2 94.8,63.2 94.8,263.8 124.5,263.8 	"/>
	<path class="st0" d="M502.2,269.6c14,0,26-3.4,35.7-10.2c9.7-6.8,16.7-15.3,20.9-25.3l1.1-2.6L534,220.6l-1.1,2.6
		c-5.5,13.1-15.7,19.5-31.2,19.5c-9.6,0-17.8-3.3-24.9-10.1c-6.5-6.2-10.3-14.6-11.4-24.7h67.8h24.5h5l0.4-7.1
		c0-20.7-5.8-37.4-17.3-49.9c-11.5-12.5-27.1-18.8-46.1-18.8c-18.4,0-33.8,6.9-45.7,20.4c-11.8,13.4-17.7,29.7-17.7,48.3
		c0,19.7,6.2,36.2,18.3,49.1C466.7,263,482.8,269.6,502.2,269.6z M478.6,166.4c5.8-5,12.5-7.4,20.5-7.4c10.9,0,19.2,2.9,24.6,8.7
		c5,5.4,7.9,11,8.8,16.7h-65.2C469.6,177,473.3,170.9,478.6,166.4z"/>
	<path class="st0" d="M357.5,269.6c14,0,26-3.4,35.7-10.2c9.7-6.8,16.7-15.3,20.9-25.3l1.1-2.6l-25.9-10.7l-1.1,2.6
		c-5.5,13.1-15.7,19.5-31.2,19.5c-9.6,0-17.8-3.3-24.9-10.1c-6.5-6.2-10.3-14.6-11.4-24.7h67.8h24.5h5l0.4-7.1
		c0-20.7-5.8-37.4-17.3-49.9c-11.5-12.5-27.1-18.8-46.1-18.8c-18.4,0-33.8,6.9-45.7,20.4c-11.8,13.4-17.7,29.7-17.7,48.3
		c0,19.7,6.2,36.2,18.3,49.1C322.1,263,338.1,269.6,357.5,269.6z M334,166.4c5.8-5,12.5-7.4,20.5-7.4c10.9,0,19.2,2.9,24.6,8.7
		c5,5.4,7.9,11,8.8,16.7h-65.2C324.9,177,328.7,170.9,334,166.4z"/>
	<path class="st0" d="M895.8,151c-11.5-12.5-27.1-18.8-46.1-18.8c-18.4,0-33.8,6.9-45.7,20.4c-11.8,13.4-17.7,29.7-17.7,48.3
		c0,19.7,6.2,36.2,18.3,49.1c12.2,13,28.2,19.6,47.6,19.6c14,0,26-3.4,35.7-10.2c9.7-6.8,16.7-15.3,20.9-25.3l1.1-2.6L884,220.6
		l-1.1,2.6c-5.5,13.1-15.7,19.5-31.2,19.5c-9.6,0-17.8-3.3-24.9-10.1c-6.5-6.2-10.3-14.6-11.4-24.7h67.8h24.5h5l0.4-7.1
		C913.1,180.2,907.3,163.4,895.8,151z M817.3,184.4c2.3-7.4,6.1-13.5,11.4-18c5.8-5,12.5-7.4,20.5-7.4c10.9,0,19.2,2.9,24.6,8.7
		c5,5.4,7.9,11,8.8,16.7H817.3z"/>
</g>
</svg>
